<?xml version="1.0" encoding="UTF-8" standalone="no"?>
<!DOCTYPE svg PUBLIC "-//W3C//DTD SVG 1.1//EN"
 "http://www.w3.org/Graphics/SVG/1.1/DTD/svg11.dtd">
<!-- Generated by graphviz version 5.0.0 (20220707.1540)
 -->
<!-- Title: UmlClassDiagram Pages: 1 -->
<svg width="5328pt" height="1289pt"
 viewBox="0.00 0.00 5328.36 1289.40" xmlns="http://www.w3.org/2000/svg" xmlns:xlink="http://www.w3.org/1999/xlink">
<g id="graph0" class="graph" transform="scale(1 1) rotate(0) translate(4 1285.4)">
<title>UmlClassDiagram</title>
<polygon fill="white" stroke="transparent" points="-4,4 -4,-1285.4 5324.36,-1285.4 5324.36,4 -4,4"/>
<!-- 0 -->
<g id="node1" class="node">
<title>0</title>
<polygon fill="#f2f2f2" stroke="black" points="0,-409.9 0,-577.1 350.31,-577.1 350.31,-409.9 0,-409.9"/>
<text text-anchor="middle" x="175.16" y="-560.5" font-family="Times,serif" font-size="14.00">&lt;&lt;Interface&gt;&gt;</text>
<text text-anchor="middle" x="175.16" y="-543.7" font-family="Times,serif" font-size="14.00">IAccessControl</text>
<text text-anchor="middle" x="175.16" y="-526.9" font-family="Times,serif" font-size="14.00">contracts/Access/IAccessControl.sol</text>
<polyline fill="none" stroke="black" points="0,-518.7 350.31,-518.7 "/>
<text text-anchor="start" x="8" y="-502.1" font-family="Times,serif" font-size="14.00">External:</text>
<text text-anchor="start" x="8" y="-485.3" font-family="Times,serif" font-size="14.00"> &#160;&#160;&#160;&#160;isOwnerRole(owner: address): bool</text>
<text text-anchor="start" x="8" y="-468.5" font-family="Times,serif" font-size="14.00"> &#160;&#160;&#160;&#160;isHighLevelOperator(highLevelOperator: address): bool</text>
<text text-anchor="start" x="8" y="-451.7" font-family="Times,serif" font-size="14.00"> &#160;&#160;&#160;&#160;addHighLevelOperator(highLevelOperator: address)</text>
<text text-anchor="start" x="8" y="-434.9" font-family="Times,serif" font-size="14.00"> &#160;&#160;&#160;&#160;removeHighLevelOperator(highLevelOperator: address)</text>
<text text-anchor="start" x="8" y="-418.1" font-family="Times,serif" font-size="14.00"> &#160;&#160;&#160;&#160;transferOwnership(newOwner: address)</text>
</g>
<!-- 1 -->
<g id="node2" class="node">
<title>1</title>
<polygon fill="#f2f2f2" stroke="black" points="1.75,-17.3 1.75,-226.1 348.56,-226.1 348.56,-17.3 1.75,-17.3"/>
<text text-anchor="middle" x="175.16" y="-209.5" font-family="Times,serif" font-size="14.00">RegistrarAccessControl</text>
<text text-anchor="middle" x="175.16" y="-192.7" font-family="Times,serif" font-size="14.00">contracts/Access/RegistrarAccessControl.sol</text>
<polyline fill="none" stroke="black" points="1.75,-184.5 348.56,-184.5 "/>
<text text-anchor="middle" x="175.16" y="-167.9" font-family="Times,serif" font-size="14.00"> </text>
<polyline fill="none" stroke="black" points="1.75,-159.7 348.56,-159.7 "/>
<text text-anchor="start" x="9.75" y="-143.1" font-family="Times,serif" font-size="14.00">External:</text>
<text text-anchor="start" x="9.75" y="-126.3" font-family="Times,serif" font-size="14.00"> &#160;&#160;&#160;isOwnerRole(owner: address): bool</text>
<text text-anchor="start" x="9.75" y="-109.5" font-family="Times,serif" font-size="14.00"> &#160;&#160;&#160;isHighLevelOperator(highLevelOperator: address): bool</text>
<text text-anchor="start" x="9.75" y="-92.7" font-family="Times,serif" font-size="14.00"> &#160;&#160;&#160;addHighLevelOperator(highLevelOperator: address)</text>
<text text-anchor="start" x="9.75" y="-75.9" font-family="Times,serif" font-size="14.00"> &#160;&#160;&#160;removeHighLevelOperator(highLevelOperator: address)</text>
<text text-anchor="start" x="9.75" y="-59.1" font-family="Times,serif" font-size="14.00">Public:</text>
<text text-anchor="start" x="9.75" y="-42.3" font-family="Times,serif" font-size="14.00"> &#160;&#160;&#160;constructor()</text>
<text text-anchor="start" x="9.75" y="-25.5" font-family="Times,serif" font-size="14.00"> &#160;&#160;&#160;transferOwnership(newOwner: address)</text>
</g>
<!-- 1&#45;&gt;0 -->
<g id="edge1" class="edge">
<title>1&#45;&gt;0</title>
<path fill="none" stroke="black" stroke-dasharray="5,2" d="M175.16,-226.2C175.16,-274.02 175.16,-330.9 175.16,-379.8"/>
<polygon fill="none" stroke="black" points="164.66,-379.83 175.16,-409.83 185.66,-379.83 164.66,-379.83"/>
</g>
<!-- 2 -->
<g id="node3" class="node">
<title>2</title>
<polygon fill="#f2f2f2" stroke="black" points="543.2,-34.1 543.2,-209.3 1253.11,-209.3 1253.11,-34.1 543.2,-34.1"/>
<text text-anchor="middle" x="898.16" y="-192.7" font-family="Times,serif" font-size="14.00">FeeManager</text>
<text text-anchor="middle" x="898.16" y="-175.9" font-family="Times,serif" font-size="14.00">contracts/FeeManager/FeeManager.sol</text>
<polyline fill="none" stroke="black" points="543.2,-167.7 1253.11,-167.7 "/>
<text text-anchor="middle" x="898.16" y="-151.1" font-family="Times,serif" font-size="14.00"> </text>
<polyline fill="none" stroke="black" points="543.2,-142.9 1253.11,-142.9 "/>
<text text-anchor="start" x="551.2" y="-126.3" font-family="Times,serif" font-size="14.00">External:</text>
<text text-anchor="start" x="551.2" y="-109.5" font-family="Times,serif" font-size="14.00"> &#160;&#160;&#160;withdraw()</text>
<text text-anchor="start" x="551.2" y="-92.7" font-family="Times,serif" font-size="14.00"> &#160;&#160;&#160;deposit(partner: address, amount: uint256)</text>
<text text-anchor="start" x="551.2" y="-75.9" font-family="Times,serif" font-size="14.00"> &#160;&#160;&#160;getBalance(partner: address): uint256</text>
<text text-anchor="start" x="551.2" y="-59.1" font-family="Times,serif" font-size="14.00">Public:</text>
<text text-anchor="start" x="551.2" y="-42.3" font-family="Times,serif" font-size="14.00"> &#160;&#160;&#160;constructor(rif: RIF, registrar: IBaseRegistrar, renewer: IBaseRenewer, partnerManager: IPartnerManager, pool: address)</text>
</g>
<!-- 3 -->
<g id="node4" class="node">
<title>3</title>
<polygon fill="#f2f2f2" stroke="black" points="879.1,-920.5 879.1,-1104.5 1269.21,-1104.5 1269.21,-920.5 879.1,-920.5"/>
<text text-anchor="middle" x="1074.16" y="-1087.9" font-family="Times,serif" font-size="14.00">&lt;&lt;Interface&gt;&gt;</text>
<text text-anchor="middle" x="1074.16" y="-1071.1" font-family="Times,serif" font-size="14.00">IFeeManager</text>
<text text-anchor="middle" x="1074.16" y="-1054.3" font-family="Times,serif" font-size="14.00">contracts/FeeManager/IFeeManager.sol</text>
<polyline fill="none" stroke="black" points="879.1,-1046.1 1269.21,-1046.1 "/>
<text text-anchor="start" x="887.1" y="-1029.5" font-family="Times,serif" font-size="14.00">External:</text>
<text text-anchor="start" x="887.1" y="-1012.7" font-family="Times,serif" font-size="14.00"> &#160;&#160;&#160;&#160;withdraw()</text>
<text text-anchor="start" x="887.1" y="-995.9" font-family="Times,serif" font-size="14.00"> &#160;&#160;&#160;&#160;deposit(partner: address, amount: uint256)</text>
<text text-anchor="start" x="887.1" y="-979.1" font-family="Times,serif" font-size="14.00"> &#160;&#160;&#160;&#160;getBalance(partner: address): uint256</text>
<text text-anchor="start" x="887.1" y="-962.3" font-family="Times,serif" font-size="14.00">Public:</text>
<text text-anchor="start" x="887.1" y="-945.5" font-family="Times,serif" font-size="14.00"> &#160;&#160;&#160;&lt;&lt;event&gt;&gt; WithdrawalSuccessful(amount: uint256, to: address)</text>
<text text-anchor="start" x="887.1" y="-928.7" font-family="Times,serif" font-size="14.00"> &#160;&#160;&#160;&lt;&lt;event&gt;&gt; DepositSuccessful(amount: uint256, from: address)</text>
</g>
<!-- 2&#45;&gt;3 -->
<g id="edge2" class="edge">
<title>2&#45;&gt;3</title>
<path fill="none" stroke="black" stroke-dasharray="5,2" d="M543.01,-201.72C475.23,-223.96 418.64,-250.16 397.16,-279.4 368.98,-317.74 371.3,-667.66 397.16,-707.6 496.38,-860.9 693.26,-937.61 849.25,-975.54"/>
<polygon fill="none" stroke="black" points="847.26,-985.86 878.86,-982.4 852,-965.4 847.26,-985.86"/>
</g>
<!-- 4 -->
<g id="node5" class="node">
<title>4</title>
<polygon fill="#f2f2f2" stroke="black" points="2927.77,-744.1 2927.77,-1280.9 3448.54,-1280.9 3448.54,-744.1 2927.77,-744.1"/>
<text text-anchor="middle" x="3188.16" y="-1264.3" font-family="Times,serif" font-size="14.00">&lt;&lt;Interface&gt;&gt;</text>
<text text-anchor="middle" x="3188.16" y="-1247.5" font-family="Times,serif" font-size="14.00">IPartnerConfiguration</text>
<text text-anchor="middle" x="3188.16" y="-1230.7" font-family="Times,serif" font-size="14.00">contracts/PartnerConfiguration/IPartnerConfiguration.sol</text>
<polyline fill="none" stroke="black" points="2927.77,-1222.5 3448.54,-1222.5 "/>
<text text-anchor="start" x="2935.77" y="-1205.9" font-family="Times,serif" font-size="14.00">External:</text>
<text text-anchor="start" x="2935.77" y="-1189.1" font-family="Times,serif" font-size="14.00"> &#160;&#160;&#160;&#160;getMinLength(): uint256</text>
<text text-anchor="start" x="2935.77" y="-1172.3" font-family="Times,serif" font-size="14.00"> &#160;&#160;&#160;&#160;getMaxLength(): uint256</text>
<text text-anchor="start" x="2935.77" y="-1138.7" font-family="Times,serif" font-size="14.00"> &#160;&#160;&#160;&#160;getMinDuration(): uint256</text>
<text text-anchor="start" x="2935.77" y="-1121.9" font-family="Times,serif" font-size="14.00"> &#160;&#160;&#160;&#160;getMaxDuration(): uint256</text>
<text text-anchor="start" x="2935.77" y="-1105.1" font-family="Times,serif" font-size="14.00"> &#160;&#160;&#160;&#160;getFeePercentage(): uint256</text>
<text text-anchor="start" x="2935.77" y="-1088.3" font-family="Times,serif" font-size="14.00"> &#160;&#160;&#160;&#160;getDiscount(): uint256</text>
<text text-anchor="start" x="2935.77" y="-1071.5" font-family="Times,serif" font-size="14.00"> &#160;&#160;&#160;&#160;getMinCommitmentAge(): uint256</text>
<text text-anchor="start" x="2935.77" y="-1054.7" font-family="Times,serif" font-size="14.00"> &#160;&#160;&#160;&#160;getPrice(name: string, expires: uint256, duration: uint256): uint256</text>
<text text-anchor="start" x="2935.77" y="-1037.9" font-family="Times,serif" font-size="14.00"> &#160;&#160;&#160;&#160;setMinCommitmentAge(minCommitmentAge: uint256)</text>
<text text-anchor="start" x="2935.77" y="-1021.1" font-family="Times,serif" font-size="14.00"> &#160;&#160;&#160;&#160;setDiscount(discount: uint256)</text>
<text text-anchor="start" x="2935.77" y="-1004.3" font-family="Times,serif" font-size="14.00"> &#160;&#160;&#160;&#160;setFeePercentage(feePercentage: uint256)</text>
<text text-anchor="start" x="2935.77" y="-987.5" font-family="Times,serif" font-size="14.00"> &#160;&#160;&#160;&#160;setMaxDuration(maxDuration: uint256)</text>
<text text-anchor="start" x="2935.77" y="-953.9" font-family="Times,serif" font-size="14.00"> &#160;&#160;&#160;&#160;setMaxLength(maxLength: uint256)</text>
<text text-anchor="start" x="2935.77" y="-937.1" font-family="Times,serif" font-size="14.00"> &#160;&#160;&#160;&#160;setMinDuration(minDuration: uint256)</text>
<text text-anchor="start" x="2935.77" y="-920.3" font-family="Times,serif" font-size="14.00"> &#160;&#160;&#160;&#160;setMinLength(minLength: uint256)</text>
<text text-anchor="start" x="2935.77" y="-903.5" font-family="Times,serif" font-size="14.00"> &#160;&#160;&#160;&#160;validateName(name: string, duration: uint256)</text>
<text text-anchor="start" x="2935.77" y="-886.7" font-family="Times,serif" font-size="14.00">Public:</text>
<text text-anchor="start" x="2935.77" y="-869.9" font-family="Times,serif" font-size="14.00"> &#160;&#160;&#160;&lt;&lt;event&gt;&gt; MinLengthChanged(previousValue: uint256, newValue: uint256)</text>
<text text-anchor="start" x="2935.77" y="-853.1" font-family="Times,serif" font-size="14.00"> &#160;&#160;&#160;&lt;&lt;event&gt;&gt; MaxLengthChanged(previousValue: uint256, newValue: uint256)</text>
<text text-anchor="start" x="2935.77" y="-819.5" font-family="Times,serif" font-size="14.00"> &#160;&#160;&#160;&lt;&lt;event&gt;&gt; MinDurationChanged(previousValue: uint256, newValue: uint256)</text>
<text text-anchor="start" x="2935.77" y="-802.7" font-family="Times,serif" font-size="14.00"> &#160;&#160;&#160;&lt;&lt;event&gt;&gt; MaxDurationChanged(previousValue: uint256, newValue: uint256)</text>
<text text-anchor="start" x="2935.77" y="-785.9" font-family="Times,serif" font-size="14.00"> &#160;&#160;&#160;&lt;&lt;event&gt;&gt; FeePercentageChanged(previousValue: uint256, newValue: uint256)</text>
<text text-anchor="start" x="2935.77" y="-769.1" font-family="Times,serif" font-size="14.00"> &#160;&#160;&#160;&lt;&lt;event&gt;&gt; DiscountChanged(previousValue: uint256, newValue: uint256)</text>
<text text-anchor="start" x="2935.77" y="-752.3" font-family="Times,serif" font-size="14.00"> &#160;&#160;&#160;&lt;&lt;event&gt;&gt; MinCommitmentAgeChanged(previousValue: uint256, newValue: uint256)</text>
</g>
<!-- 2&#45;&gt;4 -->
<g id="edge7" class="edge">
<title>2&#45;&gt;4</title>
<path fill="none" stroke="black" stroke-dasharray="5,2" d="M1253.27,-203.97C1286.9,-223.87 1317.28,-248.62 1341.16,-279.4 1399.7,-354.89 1314.29,-637.47 1379.16,-707.6 1582.63,-927.58 2464.53,-988.37 2917.45,-1005.13"/>
<polygon fill="black" stroke="black" points="2917.62,-1008.64 2927.74,-1005.51 2917.87,-1001.65 2917.62,-1008.64"/>
</g>
<!-- 6 -->
<g id="node7" class="node">
<title>6</title>
<polygon fill="#f2f2f2" stroke="black" points="3788.91,-384.7 3788.91,-602.3 4331.4,-602.3 4331.4,-384.7 3788.91,-384.7"/>
<text text-anchor="middle" x="4060.16" y="-585.7" font-family="Times,serif" font-size="14.00">&lt;&lt;Interface&gt;&gt;</text>
<text text-anchor="middle" x="4060.16" y="-568.9" font-family="Times,serif" font-size="14.00">IPartnerManager</text>
<text text-anchor="middle" x="4060.16" y="-552.1" font-family="Times,serif" font-size="14.00">contracts/PartnerManager/IPartnerManager.sol</text>
<polyline fill="none" stroke="black" points="3788.91,-543.9 4331.4,-543.9 "/>
<text text-anchor="start" x="3796.91" y="-527.3" font-family="Times,serif" font-size="14.00">External:</text>
<text text-anchor="start" x="3796.91" y="-510.5" font-family="Times,serif" font-size="14.00"> &#160;&#160;&#160;&#160;setPartnerConfiguration(partner: address, configuration: IPartnerConfiguration)</text>
<text text-anchor="start" x="3796.91" y="-493.7" font-family="Times,serif" font-size="14.00"> &#160;&#160;&#160;&#160;getPartnerConfiguration(partner: address): IPartnerConfiguration</text>
<text text-anchor="start" x="3796.91" y="-476.9" font-family="Times,serif" font-size="14.00"> &#160;&#160;&#160;&#160;isPartner(partner: address): bool</text>
<text text-anchor="start" x="3796.91" y="-460.1" font-family="Times,serif" font-size="14.00"> &#160;&#160;&#160;&#160;addPartner(partner: address, partnerOwnerAccount: address)</text>
<text text-anchor="start" x="3796.91" y="-443.3" font-family="Times,serif" font-size="14.00"> &#160;&#160;&#160;&#160;removePartner(partner: address)</text>
<text text-anchor="start" x="3796.91" y="-426.5" font-family="Times,serif" font-size="14.00"> &#160;&#160;&#160;&#160;getPartnerOwnerAccount(partner: address): address</text>
<text text-anchor="start" x="3796.91" y="-409.7" font-family="Times,serif" font-size="14.00">Public:</text>
<text text-anchor="start" x="3796.91" y="-392.9" font-family="Times,serif" font-size="14.00"> &#160;&#160;&#160;&lt;&lt;event&gt;&gt; PartnerConfigurationChanged(partner: address, configurationContract: address)</text>
</g>
<!-- 2&#45;&gt;6 -->
<g id="edge6" class="edge">
<title>2&#45;&gt;6</title>
<path fill="none" stroke="black" d="M1253.11,-182.8C1406.17,-206.14 1587.49,-230.35 1752.16,-243.4 1864.43,-252.3 3672.72,-242.55 3779.16,-279.4 3839.17,-300.18 3896.68,-339.1 3943.87,-378.06"/>
<polygon fill="black" stroke="black" points="3941.73,-380.83 3951.65,-384.56 3946.22,-375.46 3941.73,-380.83"/>
</g>
<!-- 10 -->
<g id="node10" class="node">
<title>10</title>
<polygon fill="#f2f2f2" stroke="black" points="406.55,-426.7 406.55,-560.3 797.76,-560.3 797.76,-426.7 406.55,-426.7"/>
<text text-anchor="middle" x="602.16" y="-543.7" font-family="Times,serif" font-size="14.00">&lt;&lt;Interface&gt;&gt;</text>
<text text-anchor="middle" x="602.16" y="-526.9" font-family="Times,serif" font-size="14.00">RIF</text>
<text text-anchor="middle" x="602.16" y="-510.1" font-family="Times,serif" font-size="14.00">contracts/RNS/RIF.sol</text>
<polyline fill="none" stroke="black" points="406.55,-501.9 797.76,-501.9 "/>
<text text-anchor="start" x="414.55" y="-485.3" font-family="Times,serif" font-size="14.00">External:</text>
<text text-anchor="start" x="414.55" y="-468.5" font-family="Times,serif" font-size="14.00"> &#160;&#160;&#160;&#160;transferFrom(from: address, to: address, amount: uint256): bool</text>
<text text-anchor="start" x="414.55" y="-451.7" font-family="Times,serif" font-size="14.00"> &#160;&#160;&#160;&#160;transfer(to: address, value: uint256): bool</text>
<text text-anchor="start" x="414.55" y="-434.9" font-family="Times,serif" font-size="14.00"> &#160;&#160;&#160;&#160;approve(spender: address, tokens: uint256): bool</text>
</g>
<!-- 2&#45;&gt;10 -->
<g id="edge3" class="edge">
<title>2&#45;&gt;10</title>
<path fill="none" stroke="black" d="M828.76,-209.4C777.9,-272.94 709.59,-358.28 661.31,-418.59"/>
<polygon fill="black" stroke="black" points="658.45,-416.57 654.93,-426.56 663.92,-420.94 658.45,-416.57"/>
</g>
<!-- 13 -->
<g id="node12" class="node">
<title>13</title>
<polygon fill="#f2f2f2" stroke="black" points="1387.87,-376.3 1387.87,-610.7 2064.44,-610.7 2064.44,-376.3 1387.87,-376.3"/>
<text text-anchor="middle" x="1726.16" y="-594.1" font-family="Times,serif" font-size="14.00">&lt;&lt;Interface&gt;&gt;</text>
<text text-anchor="middle" x="1726.16" y="-577.3" font-family="Times,serif" font-size="14.00">IBaseRegistrar</text>
<text text-anchor="middle" x="1726.16" y="-560.5" font-family="Times,serif" font-size="14.00">contracts/Registrar/IBaseRegistrar.sol</text>
<polyline fill="none" stroke="black" points="1387.87,-552.3 2064.44,-552.3 "/>
<text text-anchor="start" x="1395.87" y="-535.7" font-family="Times,serif" font-size="14.00">External:</text>
<text text-anchor="start" x="1395.87" y="-518.9" font-family="Times,serif" font-size="14.00"> &#160;&#160;&#160;&#160;setFeeManager(feeManager: IFeeManager)</text>
<text text-anchor="start" x="1395.87" y="-502.1" font-family="Times,serif" font-size="14.00"> &#160;&#160;&#160;&#160;register(name: string, nameOwner: address, secret: bytes32, duration: uint256, addr: address, partner: address)</text>
<text text-anchor="start" x="1395.87" y="-485.3" font-family="Times,serif" font-size="14.00"> &#160;&#160;&#160;&#160;price(name: string, expires: uint256, duration: uint256, partner: address): uint256</text>
<text text-anchor="start" x="1395.87" y="-468.5" font-family="Times,serif" font-size="14.00"> &#160;&#160;&#160;&#160;makeCommitment(label: bytes32, nameOwner: address, secret: bytes32, duration: uint256, addr: address): bytes32</text>
<text text-anchor="start" x="1395.87" y="-451.7" font-family="Times,serif" font-size="14.00"> &#160;&#160;&#160;&#160;commit(commitment: bytes32, partner: address)</text>
<text text-anchor="start" x="1395.87" y="-434.9" font-family="Times,serif" font-size="14.00"> &#160;&#160;&#160;&#160;canReveal(commitment: bytes32): bool</text>
<text text-anchor="start" x="1395.87" y="-418.1" font-family="Times,serif" font-size="14.00">Public:</text>
<text text-anchor="start" x="1395.87" y="-401.3" font-family="Times,serif" font-size="14.00"> &#160;&#160;&#160;&lt;&lt;event&gt;&gt; NameRegistered(partner: address, duration: uint256)</text>
<text text-anchor="start" x="1395.87" y="-384.5" font-family="Times,serif" font-size="14.00"> &#160;&#160;&#160;&lt;&lt;event&gt;&gt; FeeManagerChanged(hostContract: address, feeManagerContract: address)</text>
</g>
<!-- 2&#45;&gt;13 -->
<g id="edge4" class="edge">
<title>2&#45;&gt;13</title>
<path fill="none" stroke="black" d="M1196.39,-209.37C1256.22,-229.95 1317.94,-253.54 1374.16,-279.4 1430.87,-305.49 1489.88,-338.6 1543.01,-370.9"/>
<polygon fill="black" stroke="black" points="1541.47,-374.06 1551.82,-376.28 1545.11,-368.08 1541.47,-374.06"/>
</g>
<!-- 15 -->
<g id="node14" class="node">
<title>15</title>
<polygon fill="#f2f2f2" stroke="black" points="815.76,-409.9 815.76,-577.1 1332.56,-577.1 1332.56,-409.9 815.76,-409.9"/>
<text text-anchor="middle" x="1074.16" y="-560.5" font-family="Times,serif" font-size="14.00">&lt;&lt;Interface&gt;&gt;</text>
<text text-anchor="middle" x="1074.16" y="-543.7" font-family="Times,serif" font-size="14.00">IBaseRenewer</text>
<text text-anchor="middle" x="1074.16" y="-526.9" font-family="Times,serif" font-size="14.00">contracts/Renewer/IBaseRenewer.sol</text>
<polyline fill="none" stroke="black" points="815.76,-518.7 1332.56,-518.7 "/>
<text text-anchor="start" x="823.76" y="-502.1" font-family="Times,serif" font-size="14.00">External:</text>
<text text-anchor="start" x="823.76" y="-485.3" font-family="Times,serif" font-size="14.00"> &#160;&#160;&#160;&#160;renew(name: string, duration: uint256, partner: address)</text>
<text text-anchor="start" x="823.76" y="-468.5" font-family="Times,serif" font-size="14.00"> &#160;&#160;&#160;&#160;setFeeManager(feeManager: IFeeManager)</text>
<text text-anchor="start" x="823.76" y="-451.7" font-family="Times,serif" font-size="14.00">Public:</text>
<text text-anchor="start" x="823.76" y="-434.9" font-family="Times,serif" font-size="14.00"> &#160;&#160;&#160;&lt;&lt;event&gt;&gt; NameRenewed(partner: address, duration: uint256)</text>
<text text-anchor="start" x="823.76" y="-418.1" font-family="Times,serif" font-size="14.00"> &#160;&#160;&#160;&lt;&lt;event&gt;&gt; FeeManagerChanged(hostContract: address, feeManagerContract: address)</text>
</g>
<!-- 2&#45;&gt;15 -->
<g id="edge5" class="edge">
<title>2&#45;&gt;15</title>
<path fill="none" stroke="black" d="M939.42,-209.4C966.76,-266.85 1002.58,-342.11 1030.42,-400.6"/>
<polygon fill="black" stroke="black" points="1027.35,-402.31 1034.81,-409.83 1033.68,-399.3 1027.35,-402.31"/>
</g>
<!-- 5 -->
<g id="node6" class="node">
<title>5</title>
<polygon fill="#f2f2f2" stroke="black" points="2605.84,-279.9 2605.84,-707.1 3770.47,-707.1 3770.47,-279.9 2605.84,-279.9"/>
<text text-anchor="middle" x="3188.16" y="-690.5" font-family="Times,serif" font-size="14.00">PartnerConfiguration</text>
<text text-anchor="middle" x="3188.16" y="-673.7" font-family="Times,serif" font-size="14.00">contracts/PartnerConfiguration/PartnerConfiguration.sol</text>
<polyline fill="none" stroke="black" points="2605.84,-665.5 3770.47,-665.5 "/>
<text text-anchor="middle" x="3188.16" y="-648.9" font-family="Times,serif" font-size="14.00"> </text>
<polyline fill="none" stroke="black" points="2605.84,-640.7 3770.47,-640.7 "/>
<text text-anchor="start" x="2613.84" y="-624.1" font-family="Times,serif" font-size="14.00">External:</text>
<text text-anchor="start" x="2613.84" y="-607.3" font-family="Times,serif" font-size="14.00"> &#160;&#160;&#160;getMinLength(): uint256</text>
<text text-anchor="start" x="2613.84" y="-590.5" font-family="Times,serif" font-size="14.00"> &#160;&#160;&#160;setMinLength(minLength: uint256)</text>
<text text-anchor="start" x="2613.84" y="-573.7" font-family="Times,serif" font-size="14.00"> &#160;&#160;&#160;getMaxLength(): uint256</text>
<text text-anchor="start" x="2613.84" y="-556.9" font-family="Times,serif" font-size="14.00"> &#160;&#160;&#160;setMaxLength(maxLength: uint256)</text>
<text text-anchor="start" x="2613.84" y="-506.5" font-family="Times,serif" font-size="14.00"> &#160;&#160;&#160;getMinDuration(): uint256</text>
<text text-anchor="start" x="2613.84" y="-489.7" font-family="Times,serif" font-size="14.00"> &#160;&#160;&#160;setMinDuration(minDuration: uint256)</text>
<text text-anchor="start" x="2613.84" y="-472.9" font-family="Times,serif" font-size="14.00"> &#160;&#160;&#160;getMaxDuration(): uint256</text>
<text text-anchor="start" x="2613.84" y="-456.1" font-family="Times,serif" font-size="14.00"> &#160;&#160;&#160;setMaxDuration(maxDuration: uint256)</text>
<text text-anchor="start" x="2613.84" y="-439.3" font-family="Times,serif" font-size="14.00"> &#160;&#160;&#160;getFeePercentage(): uint256</text>
<text text-anchor="start" x="2613.84" y="-422.5" font-family="Times,serif" font-size="14.00"> &#160;&#160;&#160;setFeePercentage(feePercentage: uint256)</text>
<text text-anchor="start" x="2613.84" y="-405.7" font-family="Times,serif" font-size="14.00"> &#160;&#160;&#160;getDiscount(): uint256</text>
<text text-anchor="start" x="2613.84" y="-388.9" font-family="Times,serif" font-size="14.00"> &#160;&#160;&#160;setDiscount(discount: uint256)</text>
<text text-anchor="start" x="2613.84" y="-372.1" font-family="Times,serif" font-size="14.00"> &#160;&#160;&#160;getMinCommitmentAge(): uint256</text>
<text text-anchor="start" x="2613.84" y="-355.3" font-family="Times,serif" font-size="14.00"> &#160;&#160;&#160;setMinCommitmentAge(minCommitmentAge: uint256)</text>
<text text-anchor="start" x="2613.84" y="-338.5" font-family="Times,serif" font-size="14.00"> &#160;&#160;&#160;getPrice(name: string, expires: uint256, duration: uint256): uint256</text>
<text text-anchor="start" x="2613.84" y="-321.7" font-family="Times,serif" font-size="14.00"> &#160;&#160;&#160;validateName(name: string, duration: uint256)</text>
<text text-anchor="start" x="2613.84" y="-304.9" font-family="Times,serif" font-size="14.00">Public:</text>
<text text-anchor="start" x="2613.84" y="-288.1" font-family="Times,serif" font-size="14.00"> &#160;&#160;&#160;constructor(minLength: uint256, maxLength: uint256, minDuration: uint256, maxDuration: uint256, feePercentage: uint256, discount: uint256, minCommitmentAge: uint256)</text>
</g>
<!-- 5&#45;&gt;4 -->
<g id="edge8" class="edge">
<title>5&#45;&gt;4</title>
<path fill="none" stroke="black" stroke-dasharray="5,2" d="M3188.16,-707.4C3188.16,-709.57 3188.16,-711.75 3188.16,-713.93"/>
<polygon fill="none" stroke="black" points="3177.66,-714.02 3188.16,-744.02 3198.66,-714.02 3177.66,-714.02"/>
</g>
<!-- 6&#45;&gt;4 -->
<g id="edge9" class="edge">
<title>6&#45;&gt;4</title>
<path fill="none" stroke="black" stroke-dasharray="5,2" d="M3927.78,-602.38C3881.93,-637.7 3829.41,-675.96 3779.16,-707.6 3677.41,-771.66 3560.56,-833.93 3457.77,-885.24"/>
<polygon fill="black" stroke="black" points="3456.21,-882.11 3448.82,-889.7 3459.33,-888.37 3456.21,-882.11"/>
</g>
<!-- 7 -->
<g id="node8" class="node">
<title>7</title>
<polygon fill="#f2f2f2" stroke="black" points="3800.62,-0.5 3800.62,-242.9 4319.69,-242.9 4319.69,-0.5 3800.62,-0.5"/>
<text text-anchor="middle" x="4060.16" y="-226.3" font-family="Times,serif" font-size="14.00">PartnerManager</text>
<text text-anchor="middle" x="4060.16" y="-209.5" font-family="Times,serif" font-size="14.00">contracts/PartnerManager/PartnerManager.sol</text>
<polyline fill="none" stroke="black" points="3800.62,-201.3 4319.69,-201.3 "/>
<text text-anchor="middle" x="4060.16" y="-184.7" font-family="Times,serif" font-size="14.00"> </text>
<polyline fill="none" stroke="black" points="3800.62,-176.5 4319.69,-176.5 "/>
<text text-anchor="start" x="3808.62" y="-159.9" font-family="Times,serif" font-size="14.00">External:</text>
<text text-anchor="start" x="3808.62" y="-143.1" font-family="Times,serif" font-size="14.00"> &#160;&#160;&#160;addPartner(partner: address, partnerOwnerAccount: address)</text>
<text text-anchor="start" x="3808.62" y="-126.3" font-family="Times,serif" font-size="14.00"> &#160;&#160;&#160;removePartner(partner: address)</text>
<text text-anchor="start" x="3808.62" y="-109.5" font-family="Times,serif" font-size="14.00"> &#160;&#160;&#160;setPartnerConfiguration(partner: address, partnerConfiguration: IPartnerConfiguration)</text>
<text text-anchor="start" x="3808.62" y="-92.7" font-family="Times,serif" font-size="14.00"> &#160;&#160;&#160;getPartnerOwnerAccount(partner: address): address</text>
<text text-anchor="start" x="3808.62" y="-75.9" font-family="Times,serif" font-size="14.00">Public:</text>
<text text-anchor="start" x="3808.62" y="-59.1" font-family="Times,serif" font-size="14.00"> &#160;&#160;&#160;&lt;&lt;event&gt;&gt; PartnerAdded(partner: address, ownerAccount: address)</text>
<text text-anchor="start" x="3808.62" y="-42.3" font-family="Times,serif" font-size="14.00"> &#160;&#160;&#160;&lt;&lt;event&gt;&gt; PartnerRemoved(partner: address, ownerAccount: address)</text>
<text text-anchor="start" x="3808.62" y="-25.5" font-family="Times,serif" font-size="14.00"> &#160;&#160;&#160;isPartner(partner: address): bool</text>
<text text-anchor="start" x="3808.62" y="-8.7" font-family="Times,serif" font-size="14.00"> &#160;&#160;&#160;getPartnerConfiguration(partner: address): IPartnerConfiguration</text>
</g>
<!-- 7&#45;&gt;4 -->
<g id="edge11" class="edge">
<title>7&#45;&gt;4</title>
<path fill="none" stroke="black" d="M4319.79,-241.11C4322.92,-241.91 4326.04,-242.67 4329.16,-243.4 4380.2,-255.35 5235.8,-241.63 5272.16,-279.4 5338.15,-347.96 5334.4,-635.62 5272.16,-707.6 5154.99,-843.09 3996.01,-949.23 3458.89,-991.56"/>
<polygon fill="black" stroke="black" points="3458.36,-988.09 3448.67,-992.36 3458.91,-995.06 3458.36,-988.09"/>
</g>
<!-- 7&#45;&gt;6 -->
<g id="edge10" class="edge">
<title>7&#45;&gt;6</title>
<path fill="none" stroke="black" stroke-dasharray="5,2" d="M4060.16,-243.02C4060.16,-278.51 4060.16,-317.63 4060.16,-354.15"/>
<polygon fill="none" stroke="black" points="4049.66,-354.42 4060.16,-384.42 4070.66,-354.42 4049.66,-354.42"/>
</g>
<!-- 9 -->
<g id="node9" class="node">
<title>9</title>
<polygon fill="#f2f2f2" stroke="black" points="2157.98,-325.9 2157.98,-661.1 2550.33,-661.1 2550.33,-325.9 2157.98,-325.9"/>
<text text-anchor="middle" x="2354.16" y="-644.5" font-family="Times,serif" font-size="14.00">&lt;&lt;Interface&gt;&gt;</text>
<text text-anchor="middle" x="2354.16" y="-627.7" font-family="Times,serif" font-size="14.00">NodeOwner</text>
<text text-anchor="middle" x="2354.16" y="-610.9" font-family="Times,serif" font-size="14.00">contracts/RNS/NodeOwner.sol</text>
<polyline fill="none" stroke="black" points="2157.98,-602.7 2550.33,-602.7 "/>
<text text-anchor="start" x="2165.98" y="-586.1" font-family="Times,serif" font-size="14.00">External:</text>
<text text-anchor="start" x="2165.98" y="-569.3" font-family="Times,serif" font-size="14.00"> &#160;&#160;&#160;&#160;register(label: bytes32, tokenOwner: address, duration: uint256)</text>
<text text-anchor="start" x="2165.98" y="-552.5" font-family="Times,serif" font-size="14.00"> &#160;&#160;&#160;&#160;expirationTime(label: uint256): uint256</text>
<text text-anchor="start" x="2165.98" y="-535.7" font-family="Times,serif" font-size="14.00"> &#160;&#160;&#160;&#160;addRegistrar(registrar: address)</text>
<text text-anchor="start" x="2165.98" y="-518.9" font-family="Times,serif" font-size="14.00"> &#160;&#160;&#160;&#160;removeRegistrar(registrar: address)</text>
<text text-anchor="start" x="2165.98" y="-502.1" font-family="Times,serif" font-size="14.00"> &#160;&#160;&#160;&#160;isRegistrar(registrar: address): bool</text>
<text text-anchor="start" x="2165.98" y="-485.3" font-family="Times,serif" font-size="14.00"> &#160;&#160;&#160;&#160;addRenewer(renewer: address)</text>
<text text-anchor="start" x="2165.98" y="-468.5" font-family="Times,serif" font-size="14.00"> &#160;&#160;&#160;&#160;isRenewer(renewer: address): bool</text>
<text text-anchor="start" x="2165.98" y="-451.7" font-family="Times,serif" font-size="14.00"> &#160;&#160;&#160;&#160;removeRenewer(renewer: address)</text>
<text text-anchor="start" x="2165.98" y="-434.9" font-family="Times,serif" font-size="14.00"> &#160;&#160;&#160;&#160;renew(label: bytes32, time: uint256)</text>
<text text-anchor="start" x="2165.98" y="-418.1" font-family="Times,serif" font-size="14.00"> &#160;&#160;&#160;&#160;removeExpired(tokenIds: uint256[])</text>
<text text-anchor="start" x="2165.98" y="-401.3" font-family="Times,serif" font-size="14.00"> &#160;&#160;&#160;&#160;reclaim(tokenId: uint256, newOwner: address)</text>
<text text-anchor="start" x="2165.98" y="-384.5" font-family="Times,serif" font-size="14.00"> &#160;&#160;&#160;&#160;setRootResolver(resolver: address)</text>
<text text-anchor="start" x="2165.98" y="-367.7" font-family="Times,serif" font-size="14.00"> &#160;&#160;&#160;&#160;available(tokenId: uint256): bool</text>
<text text-anchor="start" x="2165.98" y="-350.9" font-family="Times,serif" font-size="14.00"> &#160;&#160;&#160;&#160;ownerOf(tokenId: uint256): address</text>
<text text-anchor="start" x="2165.98" y="-334.1" font-family="Times,serif" font-size="14.00"> &#160;&#160;&#160;&#160;transferFrom(from: address, to: address, tokenId: uint256)</text>
</g>
<!-- 11 -->
<g id="node11" class="node">
<title>11</title>
<polygon fill="#f2f2f2" stroke="black" points="4387.15,-384.7 4387.15,-602.3 4833.17,-602.3 4833.17,-384.7 4387.15,-384.7"/>
<text text-anchor="middle" x="4610.16" y="-585.7" font-family="Times,serif" font-size="14.00">&lt;&lt;Interface&gt;&gt;</text>
<text text-anchor="middle" x="4610.16" y="-568.9" font-family="Times,serif" font-size="14.00">RNS</text>
<text text-anchor="middle" x="4610.16" y="-552.1" font-family="Times,serif" font-size="14.00">contracts/RNS/RNS.sol</text>
<polyline fill="none" stroke="black" points="4387.15,-543.9 4833.17,-543.9 "/>
<text text-anchor="start" x="4395.15" y="-527.3" font-family="Times,serif" font-size="14.00">External:</text>
<text text-anchor="start" x="4395.15" y="-510.5" font-family="Times,serif" font-size="14.00"> &#160;&#160;&#160;&#160;owner(node: bytes32): address</text>
<text text-anchor="start" x="4395.15" y="-493.7" font-family="Times,serif" font-size="14.00"> &#160;&#160;&#160;&#160;resolver(node: bytes32): address</text>
<text text-anchor="start" x="4395.15" y="-476.9" font-family="Times,serif" font-size="14.00"> &#160;&#160;&#160;&#160;ttl(node: bytes32): uint64</text>
<text text-anchor="start" x="4395.15" y="-460.1" font-family="Times,serif" font-size="14.00"> &#160;&#160;&#160;&#160;setOwner(node: bytes32, ownerAddress: address)</text>
<text text-anchor="start" x="4395.15" y="-443.3" font-family="Times,serif" font-size="14.00"> &#160;&#160;&#160;&#160;setSubnodeOwner(node: bytes32, label: bytes32, ownerAddress: address)</text>
<text text-anchor="start" x="4395.15" y="-426.5" font-family="Times,serif" font-size="14.00"> &#160;&#160;&#160;&#160;setResolver(node: bytes32, resolverAddress: address)</text>
<text text-anchor="start" x="4395.15" y="-409.7" font-family="Times,serif" font-size="14.00"> &#160;&#160;&#160;&#160;setTTL(node: bytes32, ttlValue: uint64)</text>
<text text-anchor="start" x="4395.15" y="-392.9" font-family="Times,serif" font-size="14.00"> &#160;&#160;&#160;&#160;setDefaultResolver(_resolver: address)</text>
</g>
<!-- 13&#45;&gt;3 -->
<g id="edge12" class="edge">
<title>13&#45;&gt;3</title>
<path fill="none" stroke="black" stroke-dasharray="5,2" d="M1579.43,-610.85C1464.21,-702.21 1305.63,-827.95 1197.04,-914.06"/>
<polygon fill="black" stroke="black" points="1194.64,-911.49 1188.98,-920.45 1198.99,-916.98 1194.64,-911.49"/>
</g>
<!-- 14 -->
<g id="node13" class="node">
<title>14</title>
<polygon fill="#f2f2f2" stroke="black" points="2301.11,-0.5 2301.11,-242.9 2993.2,-242.9 2993.2,-0.5 2301.11,-0.5"/>
<text text-anchor="middle" x="2647.16" y="-226.3" font-family="Times,serif" font-size="14.00">PartnerRegistrar</text>
<text text-anchor="middle" x="2647.16" y="-209.5" font-family="Times,serif" font-size="14.00">contracts/Registrar/PartnerRegistrar.sol</text>
<polyline fill="none" stroke="black" points="2301.11,-201.3 2993.2,-201.3 "/>
<text text-anchor="middle" x="2647.16" y="-184.7" font-family="Times,serif" font-size="14.00"> </text>
<polyline fill="none" stroke="black" points="2301.11,-176.5 2993.2,-176.5 "/>
<text text-anchor="start" x="2309.11" y="-159.9" font-family="Times,serif" font-size="14.00">External:</text>
<text text-anchor="start" x="2309.11" y="-143.1" font-family="Times,serif" font-size="14.00"> &#160;&#160;&#160;setFeeManager(feeManager: IFeeManager)</text>
<text text-anchor="start" x="2309.11" y="-126.3" font-family="Times,serif" font-size="14.00"> &#160;&#160;&#160;tokenFallback(from: address, value: uint256, data: bytes): bool</text>
<text text-anchor="start" x="2309.11" y="-109.5" font-family="Times,serif" font-size="14.00">Public:</text>
<text text-anchor="start" x="2309.11" y="-92.7" font-family="Times,serif" font-size="14.00"> &#160;&#160;&#160;constructor(nodeOwner: NodeOwner, rif: IERC677, partnerManager: IPartnerManager, rns: RNS, rootNode: bytes32)</text>
<text text-anchor="start" x="2309.11" y="-75.9" font-family="Times,serif" font-size="14.00"> &#160;&#160;&#160;register(name: string, nameOwner: address, secret: bytes32, duration: uint256, addr: address, partner: address)</text>
<text text-anchor="start" x="2309.11" y="-59.1" font-family="Times,serif" font-size="14.00"> &#160;&#160;&#160;price(name: string, expires: uint256, duration: uint256, partner: address): uint256</text>
<text text-anchor="start" x="2309.11" y="-42.3" font-family="Times,serif" font-size="14.00"> &#160;&#160;&#160;makeCommitment(label: bytes32, nameOwner: address, secret: bytes32, duration: uint256, addr: address): bytes32</text>
<text text-anchor="start" x="2309.11" y="-25.5" font-family="Times,serif" font-size="14.00"> &#160;&#160;&#160;canReveal(commitment: bytes32): bool</text>
<text text-anchor="start" x="2309.11" y="-8.7" font-family="Times,serif" font-size="14.00"> &#160;&#160;&#160;commit(commitment: bytes32, partner: address)</text>
</g>
<!-- 14&#45;&gt;3 -->
<g id="edge16" class="edge">
<title>14&#45;&gt;3</title>
<path fill="none" stroke="black" d="M2605.83,-243.05C2602.53,-255.24 2599.55,-267.5 2597.16,-279.4 2578.3,-373.05 2622.77,-636.33 2559.16,-707.6 2391.67,-895.23 1646.39,-972.09 1279.53,-999"/>
<polygon fill="black" stroke="black" points="1279.04,-995.52 1269.32,-999.74 1279.55,-1002.5 1279.04,-995.52"/>
</g>
<!-- 14&#45;&gt;4 -->
<g id="edge18" class="edge">
<title>14&#45;&gt;4</title>
<path fill="none" stroke="black" stroke-dasharray="5,2" d="M2993.5,-162.85C3220.2,-188.24 3523.02,-220.47 3791.16,-243.4 3852.06,-248.61 4298.37,-234.78 4340.16,-279.4 4372.68,-314.13 4369.19,-669.91 4340.16,-707.6 4233.4,-846.17 3764.82,-934.3 3459.15,-978.14"/>
<polygon fill="black" stroke="black" points="3458.2,-974.74 3448.79,-979.62 3459.19,-981.67 3458.2,-974.74"/>
</g>
<!-- 14&#45;&gt;6 -->
<g id="edge15" class="edge">
<title>14&#45;&gt;6</title>
<path fill="none" stroke="black" d="M2993.45,-151.29C3272.73,-177.91 3640.96,-222.08 3779.16,-279.4 3835.96,-302.96 3891.44,-340.84 3937.9,-378.17"/>
<polygon fill="black" stroke="black" points="3935.9,-381.05 3945.87,-384.64 3940.32,-375.62 3935.9,-381.05"/>
</g>
<!-- 14&#45;&gt;9 -->
<g id="edge14" class="edge">
<title>14&#45;&gt;9</title>
<path fill="none" stroke="black" d="M2551.82,-243.02C2532.83,-267 2512.51,-292.63 2492.41,-318.01"/>
<polygon fill="black" stroke="black" points="2489.64,-315.86 2486.18,-325.87 2495.13,-320.21 2489.64,-315.86"/>
</g>
<!-- 14&#45;&gt;11 -->
<g id="edge17" class="edge">
<title>14&#45;&gt;11</title>
<path fill="none" stroke="black" d="M2993.47,-163.19C3220.16,-188.71 3522.98,-220.97 3791.16,-243.4 3920.29,-254.2 4253.66,-229.29 4373.16,-279.4 4425.16,-301.21 4473.31,-339.42 4512.45,-377.52"/>
<polygon fill="black" stroke="black" points="4510.07,-380.1 4519.65,-384.63 4514.99,-375.12 4510.07,-380.1"/>
</g>
<!-- 14&#45;&gt;13 -->
<g id="edge13" class="edge">
<title>14&#45;&gt;13</title>
<path fill="none" stroke="black" stroke-dasharray="5,2" d="M2301.09,-240.75C2298.1,-241.64 2295.12,-242.52 2292.16,-243.4 2229.3,-261.96 2210.57,-256.52 2149.16,-279.4 2086.62,-302.7 2021.22,-332.64 1961.06,-362.68"/>
<polygon fill="none" stroke="black" points="1956.31,-353.32 1934.27,-376.22 1965.78,-372.05 1956.31,-353.32"/>
</g>
<!-- 18 -->
<g id="node17" class="node">
<title>18</title>
<polygon fill="#f2f2f2" stroke="black" points="4850.86,-409.9 4850.86,-577.1 5263.46,-577.1 5263.46,-409.9 4850.86,-409.9"/>
<text text-anchor="middle" x="5057.16" y="-560.5" font-family="Times,serif" font-size="14.00">&lt;&lt;Interface&gt;&gt;</text>
<text text-anchor="middle" x="5057.16" y="-543.7" font-family="Times,serif" font-size="14.00">Resolver</text>
<text text-anchor="middle" x="5057.16" y="-526.9" font-family="Times,serif" font-size="14.00">contracts/test&#45;utils/Resolver.sol</text>
<polyline fill="none" stroke="black" points="4850.86,-518.7 5263.46,-518.7 "/>
<text text-anchor="start" x="4858.86" y="-502.1" font-family="Times,serif" font-size="14.00">External:</text>
<text text-anchor="start" x="4858.86" y="-485.3" font-family="Times,serif" font-size="14.00"> &#160;&#160;&#160;&#160;addr(node: bytes32): (payable: address)</text>
<text text-anchor="start" x="4858.86" y="-468.5" font-family="Times,serif" font-size="14.00"> &#160;&#160;&#160;&#160;addr(node: bytes32, coinType: uint256): bytes</text>
<text text-anchor="start" x="4858.86" y="-451.7" font-family="Times,serif" font-size="14.00"> &#160;&#160;&#160;&#160;setAddr(node: bytes32, addrValue: address)</text>
<text text-anchor="start" x="4858.86" y="-434.9" font-family="Times,serif" font-size="14.00"> &#160;&#160;&#160;&#160;initialize(_rns: address)</text>
<text text-anchor="start" x="4858.86" y="-418.1" font-family="Times,serif" font-size="14.00"> &#160;&#160;&#160;&#160;setAuthorisation(node: bytes32, target: address, isAuthorised: bool)</text>
</g>
<!-- 14&#45;&gt;18 -->
<g id="edge19" class="edge">
<title>14&#45;&gt;18</title>
<path fill="none" stroke="black" stroke-dasharray="5,2" d="M2993.28,-165.67C3219.89,-192.21 3522.69,-224.66 3791.16,-243.4 3907.72,-251.54 4734.88,-233.08 4842.16,-279.4 4902.13,-305.3 4954.56,-356.29 4992.62,-401.9"/>
<polygon fill="black" stroke="black" points="4990.03,-404.26 4999.08,-409.76 4995.43,-399.81 4990.03,-404.26"/>
</g>
<!-- 15&#45;&gt;3 -->
<g id="edge20" class="edge">
<title>15&#45;&gt;3</title>
<path fill="none" stroke="black" stroke-dasharray="5,2" d="M1074.16,-577.28C1074.16,-667.78 1074.16,-812.86 1074.16,-910.12"/>
<polygon fill="black" stroke="black" points="1070.66,-910.26 1074.16,-920.26 1077.66,-910.26 1070.66,-910.26"/>
</g>
<!-- 16 -->
<g id="node15" class="node">
<title>16</title>
<polygon fill="#f2f2f2" stroke="black" points="1760.88,-34.1 1760.88,-209.3 2283.43,-209.3 2283.43,-34.1 1760.88,-34.1"/>
<text text-anchor="middle" x="2022.16" y="-192.7" font-family="Times,serif" font-size="14.00">PartnerRenewer</text>
<text text-anchor="middle" x="2022.16" y="-175.9" font-family="Times,serif" font-size="14.00">contracts/Renewer/PartnerRenewer.sol</text>
<polyline fill="none" stroke="black" points="1760.88,-167.7 2283.43,-167.7 "/>
<text text-anchor="middle" x="2022.16" y="-151.1" font-family="Times,serif" font-size="14.00"> </text>
<polyline fill="none" stroke="black" points="1760.88,-142.9 2283.43,-142.9 "/>
<text text-anchor="start" x="1768.88" y="-126.3" font-family="Times,serif" font-size="14.00">External:</text>
<text text-anchor="start" x="1768.88" y="-109.5" font-family="Times,serif" font-size="14.00"> &#160;&#160;&#160;setFeeManager(feeManager: IFeeManager)</text>
<text text-anchor="start" x="1768.88" y="-92.7" font-family="Times,serif" font-size="14.00"> &#160;&#160;&#160;tokenFallback(from: address, value: uint256, data: bytes): bool</text>
<text text-anchor="start" x="1768.88" y="-75.9" font-family="Times,serif" font-size="14.00">Public:</text>
<text text-anchor="start" x="1768.88" y="-59.1" font-family="Times,serif" font-size="14.00"> &#160;&#160;&#160;constructor(nodeOwner: NodeOwner, rif: IERC677, partnerManager: IPartnerManager)</text>
<text text-anchor="start" x="1768.88" y="-42.3" font-family="Times,serif" font-size="14.00"> &#160;&#160;&#160;renew(name: string, duration: uint256, partner: address)</text>
</g>
<!-- 16&#45;&gt;3 -->
<g id="edge24" class="edge">
<title>16&#45;&gt;3</title>
<path fill="none" stroke="black" d="M2055.72,-209.36C2062.93,-231.83 2069.48,-256.23 2073.16,-279.4 2088.06,-373.38 2129.81,-631.15 2073.16,-707.6 1978.35,-835.54 1543.2,-931 1279.48,-978.31"/>
<polygon fill="black" stroke="black" points="1278.62,-974.9 1269.39,-980.11 1279.85,-981.8 1278.62,-974.9"/>
</g>
<!-- 16&#45;&gt;4 -->
<g id="edge25" class="edge">
<title>16&#45;&gt;4</title>
<path fill="none" stroke="black" stroke-dasharray="5,2" d="M2072.77,-209.52C2083.75,-231.68 2094.16,-255.89 2101.16,-279.4 2128.47,-371.17 2087.55,-634.3 2149.16,-707.6 2247.96,-825.16 2644,-916.47 2917.54,-967.13"/>
<polygon fill="black" stroke="black" points="2917.16,-970.62 2927.63,-968.99 2918.43,-963.74 2917.16,-970.62"/>
</g>
<!-- 16&#45;&gt;6 -->
<g id="edge23" class="edge">
<title>16&#45;&gt;6</title>
<path fill="none" stroke="black" d="M2188.57,-209.32C2222.06,-223.22 2257.6,-235.59 2292.16,-243.4 2453.36,-279.84 3623.16,-224.83 3779.16,-279.4 3838.96,-300.32 3896.34,-339.15 3943.47,-378"/>
<polygon fill="black" stroke="black" points="3941.33,-380.76 3951.25,-384.48 3945.81,-375.39 3941.33,-380.76"/>
</g>
<!-- 16&#45;&gt;9 -->
<g id="edge22" class="edge">
<title>16&#45;&gt;9</title>
<path fill="none" stroke="black" d="M2100,-209.4C2129.28,-242.02 2163.73,-280.39 2197.64,-318.17"/>
<polygon fill="black" stroke="black" points="2195.13,-320.61 2204.42,-325.71 2200.34,-315.94 2195.13,-320.61"/>
</g>
<!-- 16&#45;&gt;15 -->
<g id="edge21" class="edge">
<title>16&#45;&gt;15</title>
<path fill="none" stroke="black" stroke-dasharray="5,2" d="M1760.65,-163.58C1640.93,-188 1499.3,-225.1 1379.16,-279.4 1314.86,-308.46 1249.9,-351.52 1196.55,-391.34"/>
<polygon fill="none" stroke="black" points="1190.02,-383.12 1172.51,-409.65 1202.74,-399.82 1190.02,-383.12"/>
</g>
<!-- 17 -->
<g id="node16" class="node">
<title>17</title>
<polygon fill="#f2f2f2" stroke="black" points="4337.93,-67.7 4337.93,-175.7 4936.38,-175.7 4936.38,-67.7 4337.93,-67.7"/>
<text text-anchor="middle" x="4637.16" y="-159.1" font-family="Times,serif" font-size="14.00">ERC677Token</text>
<text text-anchor="middle" x="4637.16" y="-142.3" font-family="Times,serif" font-size="14.00">contracts/test&#45;utils/ERC677Token.sol</text>
<polyline fill="none" stroke="black" points="4337.93,-134.1 4936.38,-134.1 "/>
<text text-anchor="middle" x="4637.16" y="-117.5" font-family="Times,serif" font-size="14.00"> </text>
<polyline fill="none" stroke="black" points="4337.93,-109.3 4936.38,-109.3 "/>
<text text-anchor="start" x="4345.93" y="-92.7" font-family="Times,serif" font-size="14.00">Public:</text>
<text text-anchor="start" x="4345.93" y="-75.9" font-family="Times,serif" font-size="14.00"> &#160;&#160;&#160;constructor(initialAccount: address, initialBalance: uint256, tokenName: string, tokenSymbol: string)</text>
</g>
</g>
</svg>
